<?xml version="1.0" standalone="no"?>
<!DOCTYPE svg PUBLIC "-//W3C//DTD SVG 20010904//EN"
 "http://www.w3.org/TR/2001/REC-SVG-20010904/DTD/svg10.dtd">
<svg version="1.0" xmlns="http://www.w3.org/2000/svg"
 width="1001.000000pt" height="1001.000000pt" viewBox="0 0 1001.000000 1001.000000"
 preserveAspectRatio="xMidYMid meet">
<metadata>
Created by potrace 1.14, written by Peter Selinger 2001-2017
</metadata>
<g transform="translate(0.000000,1001.000000) scale(0.100000,-0.100000)"
fill="#000000" stroke="none">
<path d="M3350 9747 c-115 -33 -185 -89 -232 -185 -31 -62 -33 -73 -32 -167 0
-113 19 -173 79 -255 73 -100 221 -137 365 -91 35 11 65 19 66 18 14 -17 53
-110 49 -116 -3 -5 -31 -23 -62 -41 -74 -42 -161 -125 -184 -175 -23 -49 -24
-113 -4 -162 8 -20 14 -37 13 -39 -2 -1 -55 13 -118 31 -211 61 -327 67 -418
23 -60 -28 -89 -72 -113 -169 -39 -154 -10 -270 81 -317 41 -21 55 -23 145
-19 62 3 124 13 165 25 35 12 65 20 67 18 2 -1 -42 -41 -98 -87 -183 -152
-320 -343 -353 -490 -19 -86 -29 -332 -16 -400 18 -96 65 -175 165 -276 139
-141 213 -168 485 -180 162 -6 265 3 472 44 l136 27 64 -29 c92 -42 188 -46
288 -12 41 14 76 24 76 24 1 -1 -11 -34 -27 -73 -15 -38 -39 -113 -53 -165
-13 -51 -34 -119 -46 -149 -34 -86 -48 -197 -54 -450 -10 -381 -16 -507 -31
-650 -40 -381 -52 -990 -26 -1260 7 -69 14 -258 16 -420 3 -296 13 -457 40
-670 8 -63 20 -205 25 -315 17 -318 39 -618 50 -655 9 -32 7 -35 -30 -67 -46
-40 -50 -53 -15 -53 36 0 31 -18 -21 -71 l-47 -47 49 -9 c82 -14 483 -10 526
5 55 20 88 63 90 120 1 38 2 41 5 14 5 -41 15 -45 83 -29 l55 13 -5 89 c-3 50
-5 143 -5 207 0 107 2 119 22 139 48 49 194 26 257 -40 51 -54 62 -197 21
-270 -30 -52 -30 -51 -2 -51 33 0 48 -13 37 -30 -18 -28 -12 -41 15 -34 35 9
31 1 -15 -31 -22 -15 -40 -31 -40 -35 0 -5 19 -11 42 -15 l43 -8 -39 -33 c-24
-21 -36 -38 -30 -43 5 -5 92 -15 194 -22 142 -9 206 -10 274 -1 83 11 106 19
228 81 36 19 41 38 29 108 -18 94 -7 870 12 889 2 2 44 -15 93 -38 l89 -43 -3
-55 c-5 -78 12 -125 66 -182 81 -87 180 -122 270 -97 67 18 164 117 223 226
39 73 47 83 72 83 33 0 37 29 7 48 -11 7 -20 19 -20 27 0 19 -24 20 -39 1 -10
-11 -24 -10 -94 10 -145 43 -270 64 -375 64 -93 0 -103 -2 -131 -26 l-31 -26
-30 22 c-71 51 -94 105 -104 251 -10 151 -59 266 -164 387 -26 30 -75 90 -109
133 -34 43 -90 99 -124 126 -33 26 -94 73 -133 105 -39 31 -173 157 -298 280
l-225 223 -51 105 c-154 320 -266 855 -247 1180 8 156 60 630 85 782 11 68 27
181 35 253 10 83 33 196 65 315 27 102 58 229 69 283 19 94 23 102 74 160 131
151 172 204 205 266 32 62 34 71 30 141 -4 65 -11 88 -47 160 -53 104 -133
228 -219 339 -42 55 -54 76 -35 60 17 -13 45 -45 64 -72 105 -146 344 -204
473 -114 84 59 87 227 7 385 -43 86 -102 146 -178 184 -57 28 -76 32 -147 32
-44 0 -135 -5 -201 -12 -173 -19 -169 -19 -172 -2 -11 81 -17 95 -59 140 -40
43 -152 110 -183 110 -17 0 69 98 100 115 20 11 36 11 70 3 63 -14 166 -5 214
20 49 24 121 100 140 146 8 18 22 39 31 47 24 19 44 72 44 113 0 18 -9 63 -20
98 -27 89 -79 145 -188 205 -79 44 -93 48 -152 48 -53 -1 -76 -7 -127 -33 -81
-42 -123 -79 -194 -175 -67 -91 -84 -136 -75 -200 8 -52 53 -128 91 -153 26
-17 26 -18 9 -31 -11 -8 -41 -44 -69 -81 -38 -50 -63 -73 -102 -92 -28 -14
-86 -59 -129 -100 l-77 -75 -9 32 c-12 46 -49 70 -166 106 -116 35 -129 47
-172 157 -26 67 -25 110 6 211 45 147 22 277 -65 372 -60 65 -124 90 -241 94
-57 2 -113 -2 -140 -10z m90 -38 c-67 -8 -85 -15 -130 -48 -19 -14 -29 -18
-21 -8 35 44 148 84 191 68 8 -3 -10 -9 -40 -12z m1352 -35 c-34 -7 -71 -18
-81 -24 -11 -5 -23 -10 -28 -9 -28 2 99 49 132 48 37 -1 35 -2 -23 -15z
m-1566 -55 c-25 -28 -60 -79 -77 -112 -34 -69 -32 -32 2 40 17 35 100 123 116
123 3 0 -16 -23 -41 -51z m-83 -283 c3 -42 1 -63 -4 -55 -5 8 -8 43 -8 79 1
79 6 69 12 -24z m1897 -139 c0 -2 -19 -21 -42 -42 l-41 -40 33 43 c28 35 50
52 50 39z m-1303 -69 c-3 -22 -4 -21 -11 4 -5 16 -5 36 0 45 7 16 8 15 11 -4
3 -13 3 -33 0 -45z m637 -212 c-6 -15 -63 -40 -72 -32 -5 5 58 46 70 46 4 0 5
-6 2 -14z m-704 -16 c-24 -15 -36 -11 -14 4 10 8 21 12 24 10 2 -3 -2 -9 -10
-14z m877 -6 c-3 -3 -12 -4 -19 -1 -8 3 -5 6 6 6 11 1 17 -2 13 -5z m-476 -63
c16 -16 29 -37 29 -47 0 -12 -6 -9 -22 12 -13 16 -32 37 -43 46 -13 11 -15 17
-7 18 8 0 27 -13 43 -29z m699 -103 c0 -7 -6 -4 -12 7 -6 11 -27 38 -47 60
-27 31 -25 30 12 -6 26 -26 47 -53 47 -61z m-1265 57 c-36 -47 -64 -126 -66
-179 0 -27 -2 -28 -9 -11 -14 32 -11 84 6 118 13 27 91 117 101 117 2 0 -13
-20 -32 -45z m631 -52 c-3 -8 -6 -19 -6 -24 0 -19 -18 1 -22 24 -4 20 -1 23
14 19 12 -3 17 -10 14 -19z m1178 -104 c24 -11 54 -32 67 -46 l24 -26 -41 27
c-23 15 -73 38 -110 52 -62 23 -64 25 -26 19 24 -3 63 -15 86 -26z m-2314 -68
c-42 -9 -95 -27 -118 -39 -24 -12 -40 -17 -37 -11 17 26 130 69 180 68 l50 -1
-75 -17z m1153 -149 c9 -11 4 -12 -29 -6 -21 3 -40 8 -42 9 -2 2 4 17 12 34 9
16 16 38 16 48 1 10 8 -2 17 -27 8 -25 20 -51 26 -58z m-768 -235 c-54 -47
-145 -132 -276 -257 -88 -84 -211 -248 -279 -372 -34 -60 -40 -67 -35 -38 10
51 48 142 86 207 48 79 221 256 358 367 171 138 269 201 146 93z m1668 -104
c38 -48 88 -127 117 -185 52 -106 69 -166 25 -90 -14 24 -63 98 -109 166 -72
104 -116 182 -116 204 0 8 4 3 83 -95z m-723 -1304 l35 -1 -30 -13 c-38 -18
-137 -19 -190 -3 l-40 13 60 6 c33 4 76 5 95 3 19 -2 51 -4 70 -5z m1491
-3376 c13 -16 12 -17 -3 -4 -10 7 -18 15 -18 17 0 8 8 3 21 -13z m44 -64 c22
-41 11 -36 -14 7 -12 19 -16 32 -11 29 6 -3 17 -19 25 -36z m101 -140 c31 -62
54 -165 53 -239 l-1 -55 -14 76 c-11 62 -49 197 -71 256 -3 7 -2 13 1 13 3 0
17 -23 32 -51z m83 -397 c10 -19 9 -22 -9 -22 -17 0 -20 6 -19 48 1 38 2 42 8
21 5 -14 14 -35 20 -47z m606 -118 c68 -20 73 -23 32 -18 -51 6 -165 43 -132
43 11 -1 56 -11 100 -25z m-95 -5 c22 -7 46 -21 51 -31 8 -16 -1 -13 -53 13
-63 31 -88 48 -57 36 10 -3 36 -11 59 -18z m240 -43 c0 -16 -30 -26 -80 -26
-50 0 -80 10 -80 26 0 11 19 14 80 14 61 0 80 -3 80 -14z m-486 -128 c35 -75
68 -114 121 -141 17 -9 25 -16 19 -17 -23 0 -109 66 -136 105 -23 34 -54 125
-42 125 2 0 19 -33 38 -72z m-322 -635 c-17 -14 -105 -49 -149 -59 -25 -5 -23
-3 13 21 49 33 111 122 127 185 l12 44 6 -89 c5 -74 3 -92 -9 -102z m-1601 70
c-6 -12 -11 -8 -20 17 -6 18 -11 45 -11 59 0 22 3 20 20 -17 13 -28 17 -49 11
-59z m1240 -118 c19 -8 27 -14 19 -14 -18 0 -79 27 -64 28 7 1 27 -6 45 -14z"/>
</g>
</svg>
